<?xml version="1.0" encoding="UTF-8"?>
<svg id="Layer_1" xmlns="http://www.w3.org/2000/svg" version="1.1" viewBox="0 0 800 800">
  <!-- Generator: Adobe Illustrator 30.3.0, SVG Export Plug-In . SVG Version: 2.1.3 Build 182)  -->
  <defs>
    <style>
      .st0 {
        fill: #e97627;
      }
    </style>
  </defs>
  <path class="st0" d="M388.4,5.87v73.42h-65.6v19.27h65.6v73.43h23.33v-73.43h65.6v-19.28h-65.6V5.87h-23.33ZM589.48,81.27v108.2h-98.58v30.83h98.58v106.27h34.78l.23-52.73.8-52.47,48.82-.8,48.58-.27v-30.82h-98.43v-108.2h-34.78ZM175.9,83.2v106.4h-99.6v30.7h99.6v106.4h32.83v-106.4h100.38v-30.82h-100.37v-106.27h-32.83ZM378.78,258.87v119.78h-110.12v39.6h110.13v119.93h42.72v-119.93h110.27v-39.6h-110.27v-119.78h-42.73ZM702.87,310.52v73.97h-67.2v27.1h67.2v75.37h29.58v-75.37h67.57v-27.1h-67.57v-73.97h-29.58ZM65.78,314.83v72.53H0v20.7h65.78v73.2h22.28v-73.2h66.68v-20.7h-67.73v-72.53h-21.22ZM589.48,465.5v108.48h-100.68v30.88h100.68v107.12h35.68v-107.12h99.48v-30.88h-99.48v-108.48h-35.68ZM173.98,465.78v108.2h-98.58v30.88h98.58v106.38h36.7v-106.38h98.43v-30.88h-98.43v-108.33h-18.32l-18.38.13ZM384.5,618.38v73.43h-65.62v26.92h65.62v75.4h31l.4-37.23.5-38.18h65.78v-26.92h-66.67v-73.43h-31Z"/>
</svg>